<svg xmlns="http://www.w3.org/2000/svg" xmlns:svg="http://www.w3.org/2000/svg" id="svg5" width="766.296" height="659.836" version="1.1" viewBox="0 0 202.749 174.582"><defs id="defs2"><marker id="Arrow1Lend" orient="auto" refX="0" refY="0" style="overflow:visible"><path id="path38184" d="M 0,0 5,-5 -12.5,0 5,5 Z" transform="matrix(-0.8,0,0,-0.8,-10,0)" style="fill:context-stroke;fill-rule:evenodd;stroke:context-stroke;stroke-width:1pt"/></marker><marker id="TriangleOutL" orient="auto" refX="0" refY="0" style="overflow:visible"><path id="path38323" d="M 5.77,0 -2.88,5 V -5 Z" transform="scale(0.8)" style="fill:context-stroke;fill-rule:evenodd;stroke:context-stroke;stroke-width:1pt"/></marker><marker id="Arrow1Lstart" orient="auto" refX="0" refY="0" style="overflow:visible"><path id="path38181" d="M 0,0 5,-5 -12.5,0 5,5 Z" transform="matrix(0.8,0,0,0.8,10,0)" style="fill:context-stroke;fill-rule:evenodd;stroke:context-stroke;stroke-width:1pt"/></marker></defs><g id="layer1" transform="translate(-2.3331769,-24.815219)"><g style="fill:none;fill-rule:evenodd;stroke:none;stroke-width:1" id="quickwit-sketch" transform="matrix(0.43351223,0,0,0.40487346,7.0535935,4.4662655)"><path id="path239" fill="#eaedf1" fill-rule="nonzero" d="m 370.31713,159.04899 h 60.70018 c 3.42077,0 6.19385,2.77308 6.19385,6.19385 v 33.4468 c 0,3.42077 -2.77308,6.19385 -6.19385,6.19385 h -7.26239 v 0 h -20.89844 -32.53935 c -3.42077,0 -6.19385,-2.77308 -6.19385,-6.19385 v -33.4468 c 0,-3.42077 2.77308,-6.19385 6.19385,-6.19385 z"/><rect id="rect241" width="6.194" height="28.492" x="21.798" y="351.672" fill="#eaedf1" fill-rule="nonzero" rx="3.097"/><rect id="rect243" width="6.194" height="28.492" x="36.663" y="351.672" fill="#eaedf1" fill-rule="nonzero" rx="3.097"/><rect id="rect245" width="6.194" height="28.492" x="51.529" y="351.672" fill="#eaedf1" fill-rule="nonzero" rx="3.097"/><rect id="rect247" width="6.194" height="28.492" x="66.394" y="351.672" fill="#eaedf1" fill-rule="nonzero" rx="3.097"/><rect id="rect249" width="6.194" height="28.492" x="81.259" y="351.672" fill="#eaedf1" fill-rule="nonzero" rx="3.097"/><rect id="rect251" width="6.194" height="28.492" x="96.125" y="351.672" fill="#eaedf1" fill-rule="nonzero" rx="3.097"/><rect id="rect253" width="6.194" height="28.492" x="110.99" y="351.672" fill="#eaedf1" fill-rule="nonzero" rx="3.097"/><rect id="rect255" width="6.194" height="28.492" x="125.855" y="351.672" fill="#eaedf1" fill-rule="nonzero" rx="3.097"/><rect id="rect257" width="6.194" height="28.492" x="140.721" y="351.672" fill="#eaedf1" fill-rule="nonzero" rx="3.097"/><rect id="rect259" width="6.194" height="28.492" x="155.586" y="351.672" fill="#eaedf1" fill-rule="nonzero" rx="3.097"/><rect id="rect261" width="6.194" height="28.492" x="170.452" y="351.672" fill="#eaedf1" fill-rule="nonzero" rx="3.097"/><rect id="rect263" width="6.194" height="28.492" x="185.316" y="351.672" fill="#eaedf1" fill-rule="nonzero" rx="3.097"/><rect id="rect265" width="6.194" height="28.492" x="200.182" y="351.672" fill="#eaedf1" fill-rule="nonzero" rx="3.097"/><rect id="rect267" width="6.194" height="28.492" x="215.047" y="351.672" fill="#eaedf1" fill-rule="nonzero" rx="3.097"/><rect id="rect269" width="6.194" height="28.492" x="229.913" y="351.672" fill="#eaedf1" fill-rule="nonzero" rx="3.097"/><rect id="rect271" width="6.194" height="28.492" x="244.778" y="351.672" fill="#16d18e" fill-rule="nonzero" rx="3.097"/><rect id="rect273" width="6.194" height="28.492" x="259.644" y="351.672" fill="#16d18e" fill-rule="nonzero" rx="3.097"/><path id="path275" fill="#000" fill-rule="nonzero" d="m 246.37562,396.69159 c 1.25701,0 1.97702,-1.075 1.97702,-2.359 0,-1.292 -0.72001,-2.358 -1.97702,-2.358 -0.633,0 -1.136,0.303 -1.40501,0.746 v -0.659 h -0.781 v 6.096 h 0.781 v -2.22 c 0.26901,0.451 0.77201,0.754 1.40501,0.754 z m -1.42201,-2.515 c 0,-1.057 0.64101,-1.517 1.28301,-1.517 0.85001,0 1.32701,0.694 1.32701,1.673 0,0.972 -0.477,1.674 -1.32701,1.674 -0.642,0 -1.28301,-0.468 -1.28301,-1.509 z m 5.64204,-3.841 c -0.06,0.72 -0.303,0.971 -1.04001,1.023 l -0.668,0.044 v 0.615 h 1.5 v 4.579 h 0.83301 v -6.261 z m 9.67606,6.356 c 1.25701,0 1.97702,-1.075 1.97702,-2.359 0,-1.292 -0.72001,-2.358 -1.97702,-2.358 -0.633,0 -1.136,0.303 -1.405,0.746 v -0.659 h -0.78001 v 6.096 h 0.78001 v -2.22 c 0.269,0.451 0.772,0.754 1.405,0.754 z m -1.42201,-2.515 c 0,-1.057 0.64101,-1.517 1.28301,-1.517 0.85001,0 1.32701,0.694 1.32701,1.673 0,0.972 -0.477,1.674 -1.32701,1.674 -0.642,0 -1.28301,-0.468 -1.28301,-1.509 z m 4.03003,1.735 v 0.685 h 4.28303 v -0.729 h -3.14702 l 1.40501,-1.144 c 0.893,-0.72 1.62101,-1.448 1.62101,-2.506 0,-1.145 -0.79801,-1.943 -2.05501,-1.943 -1.14501,0 -2.05502,0.841 -2.05502,1.951 0,0.243 0.043,0.451 0.139,0.72 h 0.78001 c -0.087,-0.217 -0.139,-0.451 -0.139,-0.676 0,-0.711 0.512,-1.284 1.25801,-1.284 0.763,0 1.257,0.521 1.257,1.284 0,0.815 -0.659,1.413 -1.50901,2.116 z m 12.87209,0.78 c 1.257,0 1.97701,-1.075 1.97701,-2.359 0,-1.292 -0.72001,-2.358 -1.97701,-2.358 -0.63301,0 -1.13601,0.303 -1.40501,0.746 v -0.659 h -0.78101 v 6.096 h 0.78101 v -2.22 c 0.269,0.451 0.772,0.754 1.40501,0.754 z m -1.42201,-2.515 c 0,-1.057 0.641,-1.517 1.28301,-1.517 0.85,0 1.327,0.694 1.327,1.673 0,0.972 -0.477,1.674 -1.327,1.674 -0.64201,0 -1.28301,-0.468 -1.28301,-1.509 z m 6.25804,2.515 c 1.29201,0 2.13301,-0.815 2.13301,-1.838 0,-0.859 -0.537,-1.336 -1.16201,-1.509 0.52901,-0.173 0.96301,-0.694 0.96301,-1.37 0,-0.989 -0.703,-1.7 -1.91701,-1.7 -1.19601,0 -2.00302,0.789 -2.16702,1.83 l 0.74501,0.147 c 0.139,-0.78 0.659,-1.274 1.40501,-1.274 0.711,0 1.15301,0.399 1.15301,1.04 0,0.625 -0.48501,0.989 -1.20501,0.989 h -0.67601 v 0.702 h 0.66701 c 0.79,0 1.38801,0.364 1.38801,1.101 0,0.737 -0.54601,1.188 -1.33601,1.188 -0.78001,0 -1.39601,-0.503 -1.51701,-1.37 l -0.80601,0.174 c 0.199,1.24 1.14401,1.89 2.33202,1.89 z" opacity=".7"/><polyline id="Path" stroke="#000" stroke-width="1.239" points="239.204 325.338 239.204 330.913 285.658 330.913 285.658 325.338" transform="translate(0,53.586711)"/><rect id="rect278" width="6.194" height="28.492" x="274.509" y="351.672" fill="#16d18e" fill-rule="nonzero" rx="3.097"/><rect id="rect280" width="6.194" height="28.492" x="289.374" y="351.672" fill="#eaedf1" fill-rule="nonzero" rx="3.097"/><rect id="rect282" width="6.194" height="28.492" x="304.239" y="351.672" fill="#eaedf1" fill-rule="nonzero" rx="3.097"/><rect id="rect284" width="6.194" height="28.492" x="319.105" y="351.672" fill="#eaedf1" fill-rule="nonzero" rx="3.097"/><rect id="rect286" width="6.194" height="28.492" x="333.97" y="351.672" fill="#eaedf1" fill-rule="nonzero" rx="3.097"/><rect id="rect288" width="6.194" height="28.492" x="348.835" y="351.672" fill="#eaedf1" fill-rule="nonzero" rx="3.097"/><rect id="rect290" width="6.194" height="28.492" x="363.7" y="351.672" fill="#eaedf1" fill-rule="nonzero" rx="3.097"/><rect id="rect292" width="6.194" height="28.492" x="378.565" y="351.672" fill="#eaedf1" fill-rule="nonzero" rx="3.097"/><rect id="rect294" width="6.194" height="28.492" x="393.432" y="351.672" fill="#eaedf1" fill-rule="nonzero" rx="3.097"/><rect id="rect296" width="6.194" height="28.492" x="408.297" y="351.672" fill="#eaedf1" fill-rule="nonzero" rx="3.097"/><rect id="rect298" width="6.194" height="28.492" x="423.162" y="351.672" fill="#eaedf1" fill-rule="nonzero" rx="3.097"/><path id="path306" fill="#000" fill-rule="nonzero" d="m 83.942567,328.50224 c 0.424903,0.841 1.45681,1.379 2.532017,1.379 1.231408,0 2.263315,-0.737 2.263315,-1.899 0,-1.318 -1.136008,-1.535 -2.167914,-1.778 -0.875806,-0.208 -1.45681,-0.347 -1.45681,-1.006 0,-0.598 0.546304,-1.014 1.300709,-1.014 0.806505,0 1.300808,0.407 1.62161,1.006 l 0.633004,-0.503 c -0.372902,-0.703 -1.153307,-1.223 -2.237214,-1.223 -1.179308,0 -2.124514,0.711 -2.124514,1.804 0,1.17 0.971206,1.439 1.951113,1.673 0.945106,0.226 1.66491,0.356 1.66491,1.11 0,0.711 -0.624404,1.11 -1.430809,1.11 -0.806405,0 -1.50881,-0.433 -1.899012,-1.179 z m 7.57805,1.379 c 1.292109,0 2.133214,-0.815 2.133214,-1.838 0,-0.859 -0.537603,-1.336 -1.162007,-1.509 0.529003,-0.174 0.962606,-0.694 0.962606,-1.37 0,-0.989 -0.702405,-1.7 -1.916413,-1.7 -1.196708,0 -2.003113,0.789 -2.167914,1.83 l 0.745805,0.147 c 0.138701,-0.78 0.659004,-1.275 1.404709,-1.275 0.711105,0 1.153308,0.399 1.153308,1.041 0,0.624 -0.485603,0.989 -1.205308,0.989 h -0.676305 v 0.702 h 0.667605 c 0.789105,0 1.387509,0.364 1.387509,1.101 0,0.737 -0.546304,1.188 -1.335409,1.188 -0.780405,0 -1.396109,-0.503 -1.51751,-1.37 l -0.806505,0.174 c 0.199501,1.24 1.144707,1.89 2.332615,1.89 z m 2.754818,-0.096 h 0.451003 v 0.07 c 0,0.416 -0.199501,0.616 -0.589703,0.633 v 0.451 c 0.693704,-0.018 1.127307,-0.425 1.127307,-1.101 v -1.076 h -0.988607 z m 7.323855,0 1.90771,-5.124 v 5.124 h 0.7718 v -6.226 h -1.1013 l -1.89902,5.117 -1.890411,-5.117 h -1.135907 v 6.226 h 0.780405 v -5.124 l 1.899013,5.124 z m 3.98472,-5.324 h 0.84981 v -0.902 h -0.84981 z m 0.81511,0.789 h -0.78041 v 4.535 h 0.78041 z m 1.30271,4.535 h 0.7805 v -2.705 c 0,-0.754 0.57231,-1.188 1.13591,-1.188 0.6764,0 0.94521,0.477 0.94521,1.11 v 2.783 h 0.7804 v -2.991 c 0,-0.963 -0.5463,-1.63 -1.50881,-1.63 -0.6417,0 -1.09261,0.329 -1.35271,0.702 v -0.616 h -0.7805 z m 5.76184,-6.226 h -0.83251 v 6.226 h 0.83251 z m 1.005,3.113 c 0,1.899 1.19671,3.209 2.82692,3.209 1.63021,0 2.81852,-1.31 2.81852,-3.209 0,-1.899 -1.18831,-3.208 -2.81852,-3.208 -1.63021,0 -2.82692,1.309 -2.82692,3.208 z m 4.82133,0 c 0,1.475 -0.8238,2.472 -1.99441,2.472 -1.17061,0 -1.99441,-0.997 -1.99441,-2.472 0,-1.474 0.8238,-2.471 1.99441,-2.471 1.17061,0 1.99441,0.997 1.99441,2.471 z m 1.16911,3.113 h 0.45101 v 0.07 c 0,0.416 -0.19901,0.616 -0.59001,0.633 v 0.451 c 0.69401,-0.018 1.12801,-0.425 1.12801,-1.101 v -1.076 h -0.98901 z m 8.14806,-6.226 v 2.645 h -3.33903 v -2.645 h -0.832 v 6.226 h 0.832 v -2.852 h 3.33903 v 2.852 h 0.832 v -6.226 z m 2.20501,6.226 h 1.97701 c 1.89102,0 3.08702,-1.214 3.08702,-3.113 0,-1.899 -1.196,-3.113 -3.08702,-3.113 h -1.97701 z m 0.815,-0.719 v -4.787 h 1.15401 c 1.42201,0 2.28002,0.937 2.28002,2.393 0,1.449 -0.85801,2.394 -2.27202,2.394 z m 6.08905,0.719 v -2.766 h 2.70601 v -0.728 h -2.70601 v -2.003 h 3.20002 v -0.729 h -4.02403 v 6.226 z m 3.40402,-1.283 c 0.425,0.841 1.45601,1.379 2.53202,1.379 1.231,0 2.26301,-0.737 2.26301,-1.899 0,-1.318 -1.13601,-1.535 -2.16802,-1.778 -0.876,-0.208 -1.457,-0.347 -1.457,-1.006 0,-0.598 0.547,-1.014 1.301,-1.014 0.80601,0 1.30101,0.407 1.62201,1.006 l 0.63301,-0.503 c -0.373,-0.703 -1.15401,-1.223 -2.23802,-1.223 -1.179,0 -2.12401,0.711 -2.12401,1.804 0,1.17 0.97101,1.439 1.95101,1.673 0.94501,0.226 1.66501,0.356 1.66501,1.11 0,0.711 -0.625,1.11 -1.43101,1.11 -0.806,0 -1.509,-0.433 -1.89901,-1.179 z m 5.46303,1.283 h 0.45101 v 0.07 c 0,0.416 -0.199,0.616 -0.58901,0.633 v 0.451 c 0.69301,-0.018 1.12701,-0.425 1.12701,-1.101 v -1.076 h -0.98901 z m 3.76003,0 h 0.989 v -1.023 h -0.989 z m 1.93101,0 h 0.98801 v -1.023 h -0.98801 z m 1.93101,0 h 0.98801 v -1.023 h -0.98801 z" opacity=".6"/><rect id="rect308" width="6.194" height="16.104" x="10.648" y="443.058" fill="#16d18e" fill-rule="nonzero" rx="3.097"/><rect id="rect310" width="6.194" height="16.104" x="10.648" y="465.356" fill="#eaedf1" fill-rule="nonzero" rx="3.097"/><rect id="rect324" width="454.87" height="118.399" x="0" y="308.815" stroke="#d7d7d7" rx="5.694"/><rect style="stroke-width:.894292" id="rect326" width="72" height="132.85" x="183.455" y="148.799" stroke="#d7d7d7" rx="3.565"/><path style="stroke-width:.0997144" id="path332" fill="#979797" fill-rule="nonzero" d="m 126.96026,112.37974 c 0.006,-0.0507 0.0119,0.0191 0.0139,0.15595 5.9e-4,0.0385 8e-4,0.0797 6.1e-4,0.12045 v 0 l -0.0195,4.33388 c -6.5e-4,0.14501 -0.006,0.24971 -0.012,0.23384 -0.002,-0.006 -0.005,-0.0307 -0.006,-0.0697 v 0 l -0.13075,-2.97955 c -0.004,-0.0997 -0.005,-0.26683 -5e-4,-0.37332 10e-4,-0.0299 0.003,-0.0529 0.004,-0.0672 v 0 z m -0.0733,0.0913 0.007,0.46135 -0.019,0.17087 -0.007,-0.46135 z m -0.014,-0.92269 0.007,0.46134 -0.019,0.17087 -0.007,-0.46134 z m -0.014,-0.9227 0.007,0.46135 -0.019,0.17087 -0.007,-0.46135 z m -0.014,-0.9227 0.007,0.46135 -0.019,0.17087 -0.007,-0.46135 z m -0.014,-0.92269 0.007,0.46134 -0.019,0.17088 -0.007,-0.46135 z m -0.014,-0.9227 0.007,0.46135 -0.019,0.17087 -0.007,-0.46135 z m -0.014,-0.92269 0.007,0.46134 -0.0189,0.17087 -0.007,-0.46135 z m -0.014,-0.9227 0.007,0.46135 -0.019,0.17086 -0.007,-0.46134 z m -0.014,-0.9227 0.007,0.46135 -0.019,0.17087 -0.007,-0.46135 z m -0.014,-0.92269 0.007,0.46134 -0.019,0.17087 -0.007,-0.46134 z m -0.014,-0.9227 0.007,0.46135 -0.019,0.17087 -0.007,-0.46135 z m -0.014,-0.9227 0.007,0.46135 -0.0189,0.17087 -0.007,-0.46134 z m -0.014,-0.92269 0.007,0.46134 -0.019,0.17088 -0.007,-0.46135 z m -0.014,-0.9227 0.007,0.46135 -0.019,0.17087 -0.007,-0.46135 z m -0.014,-0.922694 0.007,0.461344 -0.019,0.17087 -0.007,-0.461346 z m -0.014,-0.922697 0.007,0.461348 -0.0189,0.170868 -0.007,-0.461349 z m -0.014,-0.922698 0.007,0.461349 -0.019,0.170872 -0.007,-0.461348 z m -0.014,-0.922692 0.007,0.461343 -0.019,0.170873 -0.007,-0.461349 z m -0.014,-0.922698 0.007,0.461349 -0.0189,0.170867 -0.007,-0.461348 z m -0.014,-0.922697 0.007,0.461349 -0.019,0.170867 -0.007,-0.461344 z m -0.014,-0.922696 0.007,0.461348 -0.019,0.17087 -0.007,-0.461349 z m -0.014,-0.922697 0.007,0.461349 -0.019,0.170869 -0.007,-0.461348 z m -0.014,-0.922696 0.007,0.461349 -0.0189,0.170869 -0.007,-0.461348 z m -0.014,-0.922696 0.007,0.461348 -0.019,0.17087 -0.007,-0.461348 z m -0.014,-0.922696 0.007,0.461348 -0.019,0.17087 -0.007,-0.461349 z"/><path style="stroke-width:1.13598" id="path334" fill="#979797" fill-rule="nonzero" d="m 313.99032,301.16728 v 0.64522 h 3.46314 c 0.26685,0 0.48823,0.25124 0.52983,0.58041 l 0.007,0.11236 c 0,0.10754 -0.0194,0.21361 -0.0567,0.30982 v 0 l -3.96308,10.22824 c -0.1326,0.34224 -0.45508,0.48094 -0.72027,0.30983 -0.1039,-0.0669 -0.18815,-0.17575 -0.24009,-0.30983 v 0 l -3.96309,-10.22824 c -0.13259,-0.34223 -0.0251,-0.75835 0.2401,-0.92946 0.0745,-0.0481 0.15674,-0.0732 0.24009,-0.0732 v 0 h 3.46307 v -0.64522 z m 0,-2.58089 v 1.29045 h -1 v -1.29045 z m 0,-2.58087 v 1.29044 h -1 v -1.29044 z m 0,-2.58089 v 1.29044 h -1 v -1.29044 z m 0,-2.58088 v 1.29043 h -1 v -1.29043 z m 0,-2.58089 v 1.29045 h -1 v -1.29045 z m 0,-2.58087 v 1.29043 h -1 v -1.29043 z m 0,-2.58089 v 1.29044 h -1 v -1.29044 z m 0,-2.58089 v 1.29044 h -1 v -1.29044 z m 0,-2.58088 v 1.29045 h -1 v -1.29045 z m 0,-2.58088 v 1.29044 h -1 v -1.29044 z m 0,-2.58088 v 1.29043 h -1 v -1.29043 z m 0,-2.58089 v 1.29044 h -1 v -1.29044 z"/><path style="stroke-width:1.08873" id="path336" fill="#979797" fill-rule="nonzero" d="m 331.86733,311.79066 v 1.18533 h -1 v -1.18533 z m 0,-2.37066 v 1.18533 h -1 V 309.42 Z m 0,-2.37066 v 1.18533 h -1 v -1.18533 z m 0,-2.37066 v 1.18533 h -1 v -1.18533 z m 0,-2.37065 v 1.18532 h -1 v -1.18532 z m 0,-2.37066 v 1.18533 h -1 v -1.18533 z m 0,-2.37066 v 1.18533 h -1 v -1.18533 z m 0,-2.37066 v 1.18533 h -1 v -1.18533 z m 0,-2.37066 v 1.18533 h -1 v -1.18533 z m 0,-2.37066 v 1.18533 h -1 v -1.18533 z m 0,-2.37066 v 1.18533 h -1 v -1.18533 z m 0,-2.37066 v 1.18533 h -1 v -1.18533 z m 0,-2.37065 v 1.18532 h -1 v -1.18532 z m 0,-2.37066 v 1.18533 h -1 v -1.18533 z m 0,-2.37066 v 1.18533 h -1 v -1.18533 z m -0.98024,-10.90872 c 0.1326,-0.31435 0.45508,-0.44176 0.72027,-0.2846 0.1039,0.0616 0.18814,0.16145 0.24009,0.2846 v 0 l 3.96308,9.39511 c 0.1326,0.31435 0.0251,0.69658 -0.24009,0.85376 -0.0745,0.0442 -0.15674,0.0672 -0.24009,0.0672 v 0 h -7.92616 c -0.2965,0 -0.53686,-0.28491 -0.53686,-0.63636 0,-0.0987 0.0194,-0.19623 0.0567,-0.28458 v 0 z"/><text id="Time-pruned-splits" y="53.587" fill="#000" font-family="Helvetica" font-size="7" font-weight="normal"><tspan id="tspan340" x="237.5" y="412.587">Time pruned splits</tspan></text><text style="font-size:8.42056px" id="Returns-splits-addre" x="-164.293" y="-14.044" fill="#000" font-family="Helvetica" font-size="7" font-weight="normal"><tspan style="font-weight:400" id="tspan23900" x="194.207" y="191.956"><tspan style="font-weight:400;font-size:8.42056px" id="tspan343" x="194.207" y="191.956">Time pruning</tspan></tspan></text><path id="path350" fill="#979797" fill-rule="nonzero" d="m 355.06753,145.81595 0.98667,-0.0442 -0.0113,1.014 -0.98666,0.0442 z m 0.0235,-2.02805 0.98667,-0.0442 -0.0113,1.01402 -0.98668,0.0442 z m 0.0235,-2.02802 0.98666,-0.0442 -0.0113,1.014 -0.98669,0.0442 z m 0.0235,-2.02804 0.98669,-0.0442 -0.0113,1.014 -0.98668,0.0442 z m 0.0235,-2.02801 0.98667,-0.0442 -0.0113,1.01401 -0.98666,0.0442 z m 0.0235,-2.02803 0.98668,-0.0442 -0.0113,1.01403 -0.98669,0.0442 z m 0.0235,-2.02803 0.98669,-0.0442 -0.0113,1.01398 -0.9867,0.0442 z m 0.0235,-2.02802 0.9867,-0.0442 -0.0113,1.01403 -0.98667,0.0442 z m 0.0225,-2.02804 0.9867,-0.0442 -0.0113,1.01401 -0.98671,0.0442 z m 0.0235,-2.02802 0.9867,-0.0442 -0.0113,1.01404 -0.98669,0.0442 z m 0.0235,-2.02801 0.98667,-0.0442 -0.0113,1.01401 -0.98671,0.0442 z m 0.0235,-2.02803 0.98669,-0.0442 -0.0113,1.014 -0.98668,0.0442 z m 0.0235,-2.02806 0.98669,-0.0442 -0.0113,1.01402 -0.98669,0.0442 z m 0.0235,-2.02801 0.98669,-0.0442 -0.0113,1.01402 -0.98668,0.0442 z m 0.0235,-2.02802 0.98667,-0.0442 -0.0113,1.014 -0.9867,0.0442 z m 0.0235,-2.02802 0.98669,-0.0442 -0.0113,1.01399 -0.98668,0.0442 z m 0.0235,-2.02802 0.98668,-0.0442 -0.0113,1.01403 -0.98669,0.0442 z m 0.0235,-2.02803 0.98668,-0.0441 -0.0113,1.01401 -0.98668,0.0442 z m 0.0235,-2.02801 0.98669,-0.0442 -0.0113,1.01401 -0.98669,0.0442 z m 0.0235,-2.02807 0.98667,-0.0442 -0.0113,1.01401 -0.98667,0.0442 z m 0.0235,-2.02802 0.98666,-0.0442 -0.0113,1.01406 -0.98667,0.0442 z m 0.0235,-2.02803 0.98669,-0.0442 -0.0113,1.014 -0.98669,0.0442 z m 0.0235,-2.028 0.98668,-0.0442 -0.0113,1.014 -0.98668,0.0442 z m 0.0235,-2.028037 0.98666,-0.0442 -0.0113,1.014027 -0.98669,0.0442 z m 0.13416,-10.14203 c 0.13389,-0.274784 0.4533,-0.398067 0.71343,-0.275409 0.10193,0.0481 0.18406,0.129771 0.23414,0.232822 v 0 l 3.81942,7.861677 c 0.12751,0.2632 0.0187,0.59479 -0.24514,0.74101 -0.074,0.041 -0.15531,0.0644 -0.23748,0.0683 v 0 l -3.41806,0.15247 -0.003,0.30299 -0.98667,0.0443 0.003,-0.30286 -3.41586,0.15419 c -0.26003,0.0116 -0.47413,-0.17119 -0.51613,-0.42313 l -0.009,-0.0975 c 3.1e-4,-0.0845 0.021,-0.16872 0.0586,-0.24596 v 0 z"/><text id="Turbo-index-splits-s" y="53.587" fill="#000" font-family="Helvetica" font-size="8" font-weight="normal"><tspan id="tspan352" x="31.5" y="452.587">Split selected for the given query</tspan></text><text style="stroke-width:.967575" id="METASTORE" x="-165.489" y="-16.43" fill="#000" font-family="Helvetica-Bold, Helvetica" font-size="9.676" font-weight="bold"><tspan style="stroke-width:.967575" id="tspan358" x="188.16" y="165.475">METASTORE</tspan></text><text id="Turbo-index-splits" y="53.587" fill="#000" font-family="Helvetica" font-size="8" font-weight="normal"><tspan id="tspan361" x="31.5" y="475.587">Split</tspan></text><rect id="rect364" width="31" height="20" x="224.887" y="442.148" fill="#eaedf1" fill-rule="nonzero" rx="6.194"/><text id="Stateless-search-ins" y="53.587" fill="#000" font-family="Helvetica" font-size="8" font-weight="normal"><tspan id="tspan366" x="264.5" y="452.587">Stateless search instance: any instance can answer to</tspan><tspan id="tspan368" x="264.5" y="462.587">any query</tspan></text><rect id="rect7634" width="73.088" height="45.834" x="82.159" y="162.303" fill="#eaedf1" fill-rule="nonzero" rx="6.194"/><text id="text10984" x="87.256" y="33.231" fill="#000" font-family="Helvetica-Bold, Helvetica" font-size="10" font-weight="bold"><tspan id="tspan10982" x="99.756" y="187.231">Indexer</tspan></text><text id="text18722" x="366.78" y="30.753" fill="#000" font-family="Helvetica-Bold, Helvetica" font-size="10" font-weight="bold"><tspan id="tspan18720" x="379.28" y="184.753">Searcher</tspan></text><path style="stroke-width:1.04449" id="path22781" fill="#979797" fill-rule="nonzero" d="m 109.34634,303.02361 v 0.54548 h 3.46314 c 0.26685,0 0.48823,0.2124 0.52983,0.49069 l 0.007,0.095 c 0,0.0909 -0.0194,0.1806 -0.0567,0.26193 v 0 l -3.96308,8.64713 c -0.1326,0.28933 -0.45508,0.4066 -0.72027,0.26193 -0.1039,-0.0566 -0.18815,-0.14857 -0.24009,-0.26193 v 0 l -3.96309,-8.64713 c -0.13259,-0.28932 -0.0251,-0.64112 0.2401,-0.78578 0.0745,-0.0407 0.15674,-0.0619 0.24009,-0.0619 v 0 h 3.46307 v -0.54548 z m 0,-2.18192 v 1.09096 h -1 v -1.09096 z m 0,-2.18193 v 1.09097 h -1 v -1.09097 z m 0,-2.18192 v 1.09096 h -1 v -1.09096 z m 0,-2.18192 v 1.09096 h -1 v -1.09096 z m 0,-2.18192 v 1.09096 h -1 V 292.114 Z m 0,-2.18192 v 1.09096 h -1 v -1.09096 z m 0,-2.18193 v 1.09096 h -1 v -1.09096 z m 0,-2.18192 v 1.09096 h -1 v -1.09096 z m 0,-2.18192 v 1.09096 h -1 v -1.09096 z m 0,-2.18192 v 1.09096 h -1 v -1.09096 z m 0,-2.18192 v 1.09096 h -1 v -1.09096 z m 0,-2.18193 v 1.09096 h -1 v -1.09096 z"/><path id="path22865" fill="#eaedf1" fill-rule="nonzero" d="m 289.81828,158.43908 h 60.70018 c 3.42077,0 6.19385,2.77308 6.19385,6.19385 v 33.4468 c 0,3.42077 -2.77308,6.19385 -6.19385,6.19385 h -7.26239 v 0 h -20.89844 -32.53935 c -3.42077,0 -6.19385,-2.77308 -6.19385,-6.19385 v -33.4468 c 0,-3.42077 2.77308,-6.19385 6.19385,-6.19385 z"/><text id="text22949" x="285.667" y="30.143" fill="#000" font-family="Helvetica-Bold, Helvetica" font-size="10" font-weight="bold"><tspan id="tspan22947" x="298.167" y="184.143">Searcher</tspan></text><text style="font-size:8.42056px" id="text27363" x="-163.571" y="-.322" fill="#000" font-family="Helvetica" font-size="7" font-weight="normal"><tspan style="font-weight:400" id="tspan27361" x="194.929" y="205.678"><tspan style="font-weight:400;font-size:8.42056px" id="tspan27359" x="194.929" y="205.678">Tag pruning</tspan></tspan></text><text style="font-size:8.42056px" id="text27939" x="-158.585" y="33.442" fill="#000" font-family="Helvetica" font-size="7" font-weight="normal"><tspan style="font-weight:400" id="tspan27937" x="199.915" y="239.442"><tspan style="font-weight:400;font-size:8.42056px" id="tspan27935" x="199.915" y="239.442" dx="0 0 0 0 0 0 0 0 0 0 0 0">Atomic split</tspan></tspan></text><text id="text34823" x="185.695" y="-78.527" fill="#000" font-family="Helvetica-Bold, Helvetica" font-size="10" font-weight="bold"><tspan id="tspan34821" x="198.195" y="75.473">REST API</tspan></text><rect style="stroke-width:.472059" id="rect36190" width="65.565" height="40.649" x="-10.653" y="161.425" stroke="#d7d7d7" rx="3.246"/><path id="path39022" fill="#979797" fill-rule="nonzero" d="m 102.7096,89.719764 -0.98667,0.04422 0.0113,-1.013997 0.98667,-0.04422 z m -0.0235,2.028048 -0.98667,0.04422 0.0113,-1.014018 0.98668,-0.04422 z m -0.0235,2.028025 -0.98665,0.04422 0.0113,-1.013997 0.98668,-0.04422 z m -0.0235,2.028037 -0.98669,0.04422 0.0113,-1.013996 0.98668,-0.04422 z m -0.0235,2.028015 -0.98666,0.04422 0.0113,-1.014019 0.98666,-0.04422 z m -0.0235,2.028026 -0.98669,0.04422 0.0113,-1.014029 0.9867,-0.04422 z m -0.0235,2.028025 -0.98668,0.0442 0.0113,-1.01397 0.98669,-0.0442 z m -0.0235,2.02802 -0.9867,0.0442 0.0113,-1.01403 0.98667,-0.0442 z m -0.0225,2.02804 -0.9867,0.0442 0.0113,-1.01401 0.98672,-0.0442 z m -0.0235,2.02802 -0.9867,0.0442 0.0113,-1.01404 0.9867,-0.0442 z m -0.0235,2.02801 -0.98667,0.0442 0.0113,-1.01401 0.98672,-0.0442 z m -0.0235,2.02803 -0.98668,0.0442 0.0113,-1.01401 0.98668,-0.0442 z m -0.0235,2.02806 -0.98669,0.0442 0.0113,-1.01401 0.98669,-0.0442 z m -0.0235,2.02801 -0.98669,0.0442 0.0113,-1.01402 0.98669,-0.0442 z m -0.0235,2.02802 -0.98668,0.0442 0.0113,-1.014 0.98671,-0.0442 z m -0.0235,2.02802 -0.98668,0.0442 0.0113,-1.01399 0.98667,-0.0442 z m -0.0235,2.02802 -0.98668,0.0442 0.0113,-1.01402 0.98669,-0.0442 z m -0.0235,2.02803 -0.98667,0.0441 0.0113,-1.01401 0.98667,-0.0442 z m -0.0235,2.02801 -0.9867,0.0442 0.0113,-1.01402 0.9867,-0.0442 z m -0.0235,2.02807 -0.98667,0.0442 0.0113,-1.01401 0.98666,-0.0442 z m -0.0235,2.02802 -0.98666,0.0442 0.0113,-1.01406 0.98667,-0.0442 z m -0.0235,2.02803 -0.98668,0.0442 0.0113,-1.01401 0.98668,-0.0442 z m -0.0235,2.028 -0.98669,0.0442 0.0113,-1.014 0.98669,-0.0442 z m -0.0235,2.02805 -0.98667,0.0442 0.0113,-1.01404 0.9867,-0.0442 z m -0.13416,10.14202 c -0.1339,0.27478 -0.4533,0.39807 -0.71343,0.27541 -0.10193,-0.0481 -0.18406,-0.12977 -0.23414,-0.23282 v 0 l -3.81942,-7.86168 c -0.12752,-0.26319 -0.0187,-0.59478 0.24514,-0.74101 0.074,-0.041 0.15531,-0.0645 0.23748,-0.0683 v 0 l 3.41806,-0.15247 0.003,-0.303 0.98667,-0.0443 -0.003,0.30286 3.41586,-0.15419 c 0.26002,-0.0117 0.47413,0.17119 0.51613,0.42314 l 0.009,0.0975 c -3.2e-4,0.0845 -0.021,0.16873 -0.0586,0.24596 v 0 z"/><path id="path39024" fill="#979797" fill-rule="nonzero" d="m 117.69181,144.50896 0.98667,-0.0442 -0.0113,1.014 -0.98666,0.0442 z m 0.0235,-2.02805 0.98667,-0.0442 -0.0113,1.01402 -0.98668,0.0442 z m 0.0235,-2.02802 0.98666,-0.0442 -0.0113,1.014 -0.98669,0.0442 z m 0.0235,-2.02804 0.98669,-0.0442 -0.0113,1.014 -0.98668,0.0442 z m 0.0235,-2.02801 0.98667,-0.0442 -0.0113,1.01401 -0.98666,0.0442 z m 0.0235,-2.02803 0.98668,-0.0442 -0.0113,1.01403 -0.98669,0.0442 z m 0.0235,-2.02803 0.98669,-0.0442 -0.0113,1.01398 -0.9867,0.0442 z m 0.0235,-2.02802 0.9867,-0.0442 -0.0113,1.01403 -0.98667,0.0442 z m 0.0225,-2.02804 0.9867,-0.0442 -0.0113,1.01401 -0.98671,0.0442 z m 0.0235,-2.02802 0.9867,-0.0442 -0.0113,1.01404 -0.98669,0.0442 z m 0.0235,-2.02801 0.98667,-0.0442 -0.0113,1.01401 -0.98671,0.0442 z m 0.0235,-2.02803 0.98669,-0.0442 -0.0113,1.014 -0.98668,0.0442 z m 0.0235,-2.02806 0.98669,-0.0442 -0.0113,1.01402 -0.98669,0.0442 z m 0.0235,-2.02801 0.98669,-0.0442 -0.0113,1.01402 -0.98668,0.0442 z m 0.0235,-2.02802 0.98667,-0.0442 -0.0113,1.014 -0.9867,0.0442 z m 0.0235,-2.02802 0.98669,-0.0442 -0.0113,1.01399 -0.98668,0.0442 z m 0.0235,-2.02802 0.98668,-0.0442 -0.0113,1.01403 -0.98669,0.0442 z m 0.0235,-2.02803 0.98668,-0.0441 -0.0113,1.01401 -0.98668,0.0442 z m 0.0235,-2.02801 0.98669,-0.0442 -0.0113,1.01401 -0.98669,0.0442 z m 0.0235,-2.02807 0.98667,-0.0442 -0.0113,1.01401 -0.98667,0.0442 z m 0.0235,-2.02802 0.98666,-0.0442 -0.0113,1.01406 -0.98667,0.0442 z m 0.0235,-2.02803 0.98669,-0.0442 -0.0113,1.014 -0.98669,0.0442 z m 0.0235,-2.027998 0.98668,-0.0442 -0.0113,1.013998 -0.98668,0.0442 z m 0.0235,-2.02804 0.98666,-0.0442 -0.0113,1.01403 -0.98669,0.0442 z M 118.36547,87.7223 c 0.13389,-0.274784 0.4533,-0.398067 0.71343,-0.275409 0.10193,0.0481 0.18406,0.129771 0.23414,0.232822 v 0 l 3.81942,7.861676 c 0.12751,0.263197 0.0187,0.594787 -0.24514,0.741011 -0.074,0.04101 -0.15531,0.06443 -0.23748,0.06833 v 0 l -3.41806,0.152466 -0.003,0.302997 -0.98667,0.04431 0.003,-0.302858 -3.41586,0.154185 c -0.26003,0.01163 -0.47413,-0.171192 -0.51613,-0.423128 l -0.009,-0.09752 c 3.1e-4,-0.08452 0.021,-0.168724 0.0586,-0.24596 v 0 z"/><rect style="fill:none;fill-rule:evenodd;stroke:none;stroke-width:.499911" id="rect36190-8" width="81.325" height="36.753" x="16.486" y="50.26" stroke="#d7d7d7" rx="4.027"/><text style="stroke-width:.83463" id="text1426" x=".587" y="201.182" fill="#000" font-family="Helvetica-Bold, Helvetica" font-size="8.346" font-weight="bold"><tspan style="stroke-width:.83463" id="tspan1424" x="11.02" y="329.716">INDEX STORAGE</tspan></text><path id="path2156" fill="#eaedf1" fill-rule="nonzero" d="m 289.81828,217.25363 h 60.70018 c 3.42077,0 6.19385,2.77308 6.19385,6.19385 v 33.4468 c 0,3.42077 -2.77308,6.19385 -6.19385,6.19385 h -7.26239 v 0 h -20.89844 -32.53935 c -3.42077,0 -6.19385,-2.77308 -6.19385,-6.19385 v -33.4468 c 0,-3.42077 2.77308,-6.19385 6.19385,-6.19385 z"/><text id="text2160" x="285.667" y="88.957" fill="#000" font-family="Helvetica-Bold, Helvetica" font-size="10" font-weight="bold"><tspan id="tspan2158" x="298.167" y="242.957">Searcher</tspan></text><rect style="stroke-width:.819015" id="rect2162" width="171.05" height="131.699" x="272.839" y="148.888" stroke="#d7d7d7" rx="3.025"/><path style="stroke-width:.850846" id="path2266" fill="#979797" fill-rule="nonzero" d="m 256.27795,190.02969 c 0.19199,-0.13259 0.42544,-0.0251 0.52143,0.2401 0.027,0.0745 0.041,0.15674 0.041,0.24009 v 0 3.46302 h 0.36196 v 1 h -0.36196 v 3.46314 c 0,0.26685 -0.14094,0.48823 -0.32561,0.52983 l -0.0631,0.007 c -0.0603,0 -0.11984,-0.0194 -0.17381,-0.0567 v 0 l -5.73805,-3.96308 c -0.19199,-0.1326 -0.26981,-0.45508 -0.17381,-0.72027 0.0375,-0.1039 0.0986,-0.18815 0.17381,-0.24009 v 0 z m 22.64259,3.94321 v 1 h -0.72394 v -1 z m -1.44787,0 v 1 h -0.72394 v -1 z m -1.44788,0 v 1 h -0.72394 v -1 z m -1.44788,0 v 1 h -0.72394 v -1 z m -1.44788,0 v 1 h -0.72393 v -1 z m -1.44788,0 v 1 h -0.72393 v -1 z m -1.44786,0 v 1 h -0.72395 v -1 z m -1.44789,0 v 1 h -0.72393 v -1 z m -1.44787,0 v 1 h -0.72394 v -1 z m -1.44788,0 v 1 h -0.72393 v -1 z m -1.44788,0 v 1 h -0.72394 v -1 z m -1.44787,0 v 1 h -0.72395 v -1 z m -1.44788,0 v 1 h -0.72394 v -1 z m -1.44788,0 v 1 h -0.72394 v -1 z m -1.44788,0 v 1 h -0.72393 v -1 z"/><path style="stroke-width:.827171" id="path2448" fill="#979797" fill-rule="nonzero" d="m 274.47801,176.33253 c 0.057,0 0.11326,0.0194 0.16427,0.0567 v 0 l 5.42317,3.96308 c 0.18146,0.1326 0.255,0.45508 0.16427,0.72027 -0.0355,0.1039 -0.0932,0.18814 -0.16427,0.24009 v 0 l -5.42317,3.96308 c -0.18145,0.1326 -0.40209,0.0251 -0.49282,-0.24009 -0.0254,-0.0745 -0.0389,-0.15674 -0.0389,-0.24009 v 0 -7.92616 c 10e-6,-0.29652 0.16448,-0.53688 0.36734,-0.53688 z m -22.60422,4 v 1 h -0.68421 v -1 z m 1.36843,0 v 1 H 252.558 v -1 z m 1.36842,0 v 1 h -0.68421 v -1 z m 1.36842,0 v 1 h -0.68421 v -1 z m 1.36843,0 v 1 h -0.68421 v -1 z m 1.36842,0 v 1 h -0.68421 v -1 z m 1.36842,0 v 1 h -0.68421 v -1 z m 1.36843,0 v 1 h -0.68421 v -1 z m 1.36842,0 v 1 h -0.68421 v -1 z m 1.36843,0 v 1 h -0.68422 v -1 z m 1.36842,0 v 1 h -0.68421 v -1 z m 1.36842,0 v 1 h -0.6842 v -1 z m 1.36843,0 v 1 h -0.68422 v -1 z m 1.36842,0 v 1 h -0.68421 v -1 z m 1.36843,0 v 1 h -0.68422 v -1 z m 1.36842,0 v 1 h -0.68421 v -1 z m 1.36842,0 v 1 h -0.68421 v -1 z"/><rect id="rect2564" width="73.088" height="45.834" x="82.159" y="218.504" fill="#eaedf1" fill-rule="nonzero" rx="6.194"/><text id="text2568" x="87.256" y="89.432" fill="#000" font-family="Helvetica-Bold, Helvetica" font-size="10" font-weight="bold"><tspan id="tspan2566" x="99.756" y="243.432">Indexer</tspan></text><rect style="stroke-width:1.03212" id="rect2650" width="95.954" height="132.782" x="70.883" y="148.833" stroke="#d7d7d7" rx="4.751"/><path style="stroke-width:.850846" id="path2652" fill="#979797" fill-rule="nonzero" d="m 167.1705,246.23026 c 0.19199,-0.13259 0.42544,-0.0251 0.52143,0.2401 0.027,0.0745 0.041,0.15674 0.041,0.24009 v 0 3.46302 h 0.36196 v 1 h -0.36196 v 3.46314 c 0,0.26685 -0.14094,0.48823 -0.32561,0.52983 l -0.0631,0.007 c -0.0603,0 -0.11984,-0.0194 -0.17381,-0.0567 v 0 l -5.73805,-3.96308 c -0.19199,-0.1326 -0.26981,-0.45508 -0.17381,-0.72027 0.0375,-0.1039 0.0986,-0.18815 0.17381,-0.24009 v 0 z m 22.64259,3.94321 v 1 h -0.72394 v -1 z m -1.44787,0 v 1 h -0.72394 v -1 z m -1.44788,0 v 1 h -0.72394 v -1 z m -1.44788,0 v 1 h -0.72394 v -1 z m -1.44788,0 v 1 h -0.72393 v -1 z m -1.44788,0 v 1 h -0.72393 v -1 z m -1.44786,0 v 1 h -0.72395 v -1 z m -1.44789,0 v 1 h -0.72393 v -1 z m -1.44787,0 v 1 h -0.72394 v -1 z m -1.44788,0 v 1 h -0.72393 v -1 z m -1.44788,0 v 1 h -0.72394 v -1 z m -1.44787,0 v 1 h -0.72395 v -1 z m -1.44788,0 v 1 h -0.72394 v -1 z m -1.44788,0 v 1 h -0.72394 v -1 z m -1.44788,0 v 1 h -0.72393 v -1 z"/><path style="stroke-width:.827171" id="path2654" fill="#979797" fill-rule="nonzero" d="m 185.37056,232.5331 c 0.057,0 0.11326,0.0194 0.16427,0.0567 v 0 l 5.42317,3.96308 c 0.18146,0.1326 0.255,0.45508 0.16427,0.72027 -0.0355,0.1039 -0.0932,0.18814 -0.16427,0.24009 v 0 l -5.42317,3.96308 c -0.18145,0.1326 -0.40209,0.0251 -0.49282,-0.24009 -0.0254,-0.0745 -0.0389,-0.15674 -0.0389,-0.24009 v 0 -7.92616 c 1e-5,-0.29652 0.16448,-0.53688 0.36734,-0.53688 z m -22.60422,4 v 1 h -0.68421 v -1 z m 1.36843,0 v 1 h -0.68422 v -1 z m 1.36842,0 v 1 h -0.68421 v -1 z m 1.36842,0 v 1 h -0.68421 v -1 z m 1.36843,0 v 1 h -0.68421 v -1 z m 1.36842,0 v 1 h -0.68421 v -1 z m 1.36842,0 v 1 h -0.68421 v -1 z m 1.36843,0 v 1 h -0.68421 v -1 z m 1.36842,0 v 1 h -0.68421 v -1 z m 1.36843,0 v 1 h -0.68422 v -1 z m 1.36842,0 v 1 h -0.68421 v -1 z m 1.36842,0 v 1 h -0.6842 v -1 z m 1.36843,0 v 1 h -0.68422 v -1 z m 1.36842,0 v 1 h -0.68421 v -1 z m 1.36843,0 v 1 h -0.68422 v -1 z m 1.36842,0 v 1 h -0.68421 v -1 z m 1.36842,0 v 1 h -0.68421 v -1 z"/><text style="font-size:8.42056px" id="text4380" x="203.078" y="252.125" fill="#000" font-family="Helvetica" font-size="7" font-weight="normal"><tspan style="font-weight:400" id="tspan4378" x="203.078" y="252.125">publishing</tspan></text><rect style="stroke-width:.509177" id="rect7038" width="455.344" height="30.664" x=".498" y="57.621" stroke="#d7d7d7" rx="5.7"/><path id="path7040" fill="#979797" fill-rule="nonzero" d="m 339.56962,91.123631 -0.98667,0.04422 0.0113,-1.013997 0.98667,-0.04422 z m -0.0235,2.028046 -0.98667,0.0442 0.0113,-1.014013 0.98668,-0.0442 z m -0.0235,2.02802 -0.98665,0.0442 0.0113,-1.01399 0.98668,-0.0442 z m -0.0235,2.02804 -0.98669,0.0442 0.0113,-1.014 0.98668,-0.0442 z m -0.0235,2.02802 -0.98666,0.0442 0.0113,-1.01402 0.98666,-0.0442 z m -0.0235,2.028023 -0.98669,0.0442 0.0113,-1.01403 0.9867,-0.0442 z m -0.0235,2.02802 -0.98668,0.0442 0.0113,-1.01398 0.98669,-0.0442 z m -0.0235,2.02801 -0.9867,0.0442 0.0113,-1.01402 0.98667,-0.0442 z m -0.0225,2.02804 -0.9867,0.0442 0.0113,-1.01401 0.98672,-0.0442 z m -0.0235,2.02802 -0.9867,0.0442 0.0113,-1.01404 0.9867,-0.0442 z m -0.0235,2.028 -0.98667,0.0442 0.0113,-1.014 0.98672,-0.0442 z m -0.0235,2.02803 -0.98668,0.0442 0.0113,-1.01401 0.98668,-0.0442 z m -0.0235,2.02805 -0.98669,0.0442 0.0113,-1.01401 0.98669,-0.0442 z m -0.0235,2.02801 -0.98669,0.0442 0.0113,-1.01402 0.98669,-0.0442 z m -0.0235,2.02802 -0.98668,0.0442 0.0113,-1.014 0.98671,-0.0442 z m -0.0235,2.02802 -0.98668,0.0442 0.0113,-1.01399 0.98667,-0.0442 z m -0.0235,2.02802 -0.98668,0.0442 0.0113,-1.01402 0.98669,-0.0442 z m -0.0235,2.02803 -0.98667,0.0441 0.0113,-1.01401 0.98667,-0.0442 z m -0.0235,2.02801 -0.9867,0.0442 0.0113,-1.01402 0.9867,-0.0442 z m -0.0235,2.02807 -0.98667,0.0442 0.0113,-1.01401 0.98666,-0.0442 z m -0.0235,2.02802 -0.98666,0.0442 0.0113,-1.01406 0.98667,-0.0442 z m -0.0235,2.02803 -0.98668,0.0442 0.0113,-1.01401 0.98668,-0.0442 z m -0.0235,2.028 -0.98669,0.0442 0.0113,-1.014 0.98669,-0.0442 z m -0.0235,2.02805 -0.98667,0.0442 0.0113,-1.01404 0.9867,-0.0442 z m -0.13416,10.14202 c -0.1339,0.27478 -0.4533,0.39807 -0.71343,0.27541 -0.10193,-0.0481 -0.18406,-0.12977 -0.23414,-0.23282 v 0 l -3.81942,-7.86168 c -0.12752,-0.26319 -0.0187,-0.59478 0.24514,-0.74101 0.074,-0.041 0.15531,-0.0645 0.23748,-0.0683 v 0 l 3.41806,-0.15247 0.003,-0.303 0.98667,-0.0443 -0.003,0.30286 3.41586,-0.15419 c 0.26002,-0.0117 0.47413,0.17119 0.51613,0.42314 l 0.009,0.0975 c -3.2e-4,0.0845 -0.021,0.16873 -0.0586,0.24596 v 0 z"/><text id="text8955" x="-9.157" y="22.175" fill="#000" font-family="Helvetica-Bold, Helvetica" font-size="10" font-weight="bold"><tspan id="tspan8953" x="3.343" y="176.175">KAFKA</tspan></text><path style="stroke-width:.827171" id="path9369" fill="#979797" fill-rule="nonzero" d="m 79.17401,171.10457 c 0.057,0 0.11326,0.0194 0.16427,0.0567 v 0 l 5.42317,3.96308 c 0.18146,0.1326 0.255,0.45508 0.16427,0.72027 -0.0355,0.1039 -0.0932,0.18814 -0.16427,0.24009 v 0 l -5.42317,3.96308 c -0.18145,0.1326 -0.40209,0.0251 -0.49282,-0.24009 -0.0254,-0.0745 -0.0389,-0.15674 -0.0389,-0.24009 v 0 -7.92616 c 10e-6,-0.29652 0.16448,-0.53688 0.36734,-0.53688 z m -22.60422,4 v 1 h -0.68421 v -1 z m 1.36843,0 v 1 H 57.254 v -1 z m 1.36842,0 v 1 h -0.68421 v -1 z m 1.36842,0 v 1 h -0.68421 v -1 z m 1.36843,0 v 1 h -0.68421 v -1 z m 1.36842,0 v 1 H 62.7277 v -1 z m 1.36842,0 v 1 h -0.68421 v -1 z m 1.36843,0 v 1 h -0.68421 v -1 z m 1.36842,0 v 1 h -0.68421 v -1 z m 1.36843,0 v 1 h -0.68422 v -1 z m 1.36842,0 v 1 h -0.68421 v -1 z m 1.36842,0 v 1 h -0.6842 v -1 z m 1.36843,0 v 1 h -0.68422 v -1 z m 1.36842,0 v 1 h -0.68421 v -1 z m 1.36843,0 v 1 h -0.68422 v -1 z m 1.36842,0 v 1 h -0.68421 v -1 z m 1.36842,0 v 1 h -0.68421 v -1 z"/><text id="text13805" x="-6.716" y="36.552" fill="#000" font-family="Helvetica-Bold, Helvetica" font-size="10" font-weight="bold"><tspan id="tspan13803" x="5.784" y="190.552">TOPIC</tspan></text><rect style="stroke-width:.472059" id="rect14425" width="65.565" height="40.649" x="-10.653" y="220.24" stroke="#d7d7d7" rx="3.246"/><text id="text14429" x="-9.157" y="80.989" fill="#000" font-family="Helvetica-Bold, Helvetica" font-size="10" font-weight="bold"><tspan id="tspan14427" x="3.343" y="234.989">OTHER</tspan></text><text id="text14433" x="-12.819" y="95.366" fill="#000" font-family="Helvetica-Bold, Helvetica" font-size="10" font-weight="bold"><tspan id="tspan14431" x="-.319" y="249.366">QUEUES</tspan></text><path style="stroke-width:.827171" id="path15915" fill="#979797" fill-rule="nonzero" d="m 79.17401,229.91912 c 0.057,0 0.11326,0.0194 0.16427,0.0567 v 0 l 5.42317,3.96308 c 0.18146,0.1326 0.255,0.45508 0.16427,0.72027 -0.0355,0.1039 -0.0932,0.18814 -0.16427,0.24009 v 0 l -5.42317,3.96308 c -0.18145,0.1326 -0.40209,0.0251 -0.49282,-0.24009 -0.0254,-0.0745 -0.0389,-0.15674 -0.0389,-0.24009 v 0 -7.92616 c 10e-6,-0.29652 0.16448,-0.53688 0.36734,-0.53688 z m -22.60422,4 v 1 h -0.68421 v -1 z m 1.36843,0 v 1 H 57.254 v -1 z m 1.36842,0 v 1 h -0.68421 v -1 z m 1.36842,0 v 1 h -0.68421 v -1 z m 1.36843,0 v 1 h -0.68421 v -1 z m 1.36842,0 v 1 H 62.7277 v -1 z m 1.36842,0 v 1 h -0.68421 v -1 z m 1.36843,0 v 1 h -0.68421 v -1 z m 1.36842,0 v 1 h -0.68421 v -1 z m 1.36843,0 v 1 h -0.68422 v -1 z m 1.36842,0 v 1 h -0.68421 v -1 z m 1.36842,0 v 1 h -0.6842 v -1 z m 1.36843,0 v 1 h -0.68422 v -1 z m 1.36842,0 v 1 h -0.68421 v -1 z m 1.36843,0 v 1 h -0.68422 v -1 z m 1.36842,0 v 1 h -0.68421 v -1 z m 1.36842,0 v 1 h -0.68421 v -1 z"/><path style="stroke-width:.850846" id="path15917" fill="#979797" fill-rule="nonzero" d="m 59.558328,183.98893 c 0.19199,-0.13259 0.42544,-0.0251 0.52143,0.2401 0.027,0.0745 0.041,0.15674 0.041,0.24009 v 0 3.46302 h 0.36196 v 1 h -0.36196 v 3.46314 c 0,0.26685 -0.14094,0.48823 -0.32561,0.52983 l -0.0631,0.007 c -0.0603,0 -0.11984,-0.0194 -0.17381,-0.0567 v 0 l -5.73805,-3.96308 c -0.19199,-0.1326 -0.26981,-0.45508 -0.17381,-0.72027 0.0375,-0.1039 0.0986,-0.18815 0.17381,-0.24009 v 0 z m 22.64259,3.94321 v 1 h -0.72394 v -1 z m -1.44787,0 v 1 h -0.72394 v -1 z m -1.44788,0 v 1 h -0.72394 v -1 z m -1.44788,0 v 1 h -0.72394 v -1 z m -1.44788,0 v 1 h -0.72393 v -1 z m -1.44788,0 v 1 h -0.72393 v -1 z m -1.44786,0 v 1 h -0.72395 v -1 z m -1.44789,0 v 1 h -0.72393 v -1 z m -1.44787,0 v 1 h -0.72394 v -1 z m -1.44788,0 v 1 h -0.72393 v -1 z m -1.44788,0 v 1 h -0.72394 v -1 z m -1.44787,0 v 1 h -0.72395 v -1 z m -1.44788,0 v 1 h -0.72394 v -1 z m -1.44788,0 v 1 h -0.72394 v -1 z m -1.44788,0 v 1 h -0.72393 v -1 z"/><path style="stroke-width:.850846" id="path15919" fill="#979797" fill-rule="nonzero" d="m 59.558328,242.80348 c 0.19199,-0.13259 0.42544,-0.0251 0.52143,0.2401 0.027,0.0745 0.041,0.15674 0.041,0.24009 v 0 3.46302 h 0.36196 v 1 h -0.36196 v 3.46314 c 0,0.26685 -0.14094,0.48823 -0.32561,0.52983 l -0.0631,0.007 c -0.0603,0 -0.11984,-0.0194 -0.17381,-0.0567 v 0 l -5.73805,-3.96308 c -0.19199,-0.1326 -0.26981,-0.45508 -0.17381,-0.72027 0.0375,-0.1039 0.0986,-0.18815 0.17381,-0.24009 v 0 z m 22.64259,3.94321 v 1 h -0.72394 v -1 z m -1.44787,0 v 1 h -0.72394 v -1 z m -1.44788,0 v 1 h -0.72394 v -1 z m -1.44788,0 v 1 h -0.72394 v -1 z m -1.44788,0 v 1 h -0.72393 v -1 z m -1.44788,0 v 1 h -0.72393 v -1 z m -1.44786,0 v 1 h -0.72395 v -1 z m -1.44789,0 v 1 h -0.72393 v -1 z m -1.44787,0 v 1 h -0.72394 v -1 z m -1.44788,0 v 1 h -0.72393 v -1 z m -1.44788,0 v 1 h -0.72394 v -1 z m -1.44787,0 v 1 h -0.72395 v -1 z m -1.44788,0 v 1 h -0.72394 v -1 z m -1.44788,0 v 1 h -0.72394 v -1 z m -1.44788,0 v 1 h -0.72393 v -1 z"/><text style="stroke-width:.609607" id="text16045" x="219.839" y="359.147" fill="#000" font-family="Helvetica-Bold, Helvetica" font-size="6.096" font-weight="bold"><tspan style="stroke-width:.609607" id="tspan16043" x="227.459" y="453.027">Searcher</tspan></text><text style="font-size:7.76588px;stroke-width:.922252" id="text16051" x="126.622" y="297.51" fill="#000" font-family="Helvetica" font-size="7" font-weight="normal"><tspan style="font-weight:400;stroke-width:.922252" id="tspan16049" x="126.622" y="297.51">Splits upload/download</tspan></text><path id="path16053" fill="#979797" fill-rule="nonzero" d="m 124.6192,313.87353 v 1 h -1 v -1 z m 0,-2 v 1 h -1 v -1 z m 0,-2 v 1 h -1 v -1 z m 0,-2 v 1 h -1 v -1 z m 0,-2 v 1 h -1 v -1 z m 0,-2 v 1 h -1 v -1 z m 0,-2 v 1 h -1 v -1 z m 0,-2 v 1 h -1 v -1 z m 0,-2 v 1 h -1 v -1 z m 0,-2 v 1 h -1 v -1 z m 0,-2 v 1 h -1 v -1 z m 0,-2 v 1 h -1 v -1 z m 0,-2 v 1 h -1 v -1 z m 0,-2 v 1 h -1 v -1 z m 0,-2 v 1 h -1 v -1 z m -0.98024,-9.20311 c 0.1326,-0.2652 0.45508,-0.37269 0.72027,-0.2401 0.1039,0.052 0.18814,0.1362 0.24009,0.2401 v 0 l 3.96308,7.92616 c 0.1326,0.2652 0.0251,0.58767 -0.24009,0.72027 -0.0745,0.0373 -0.15674,0.0567 -0.24009,0.0567 v 0 h -7.92616 c -0.2965,0 -0.53686,-0.24036 -0.53686,-0.53686 0,-0.0833 0.0194,-0.16555 0.0567,-0.24009 v 0 z"/><text style="font-size:7.76588px;stroke-width:.922252" id="text21051" x="335.1" y="295.554" fill="#000" font-family="Helvetica" font-size="7" font-weight="normal"><tspan style="font-weight:400;stroke-width:.922252" id="tspan21049" x="335.1" y="295.554" dx="0 0 0 0 0 0 0 0 0 0 0 0 0">Range queries to storage</tspan></text><text style="font-size:7.76588px;stroke-width:.922252" id="text22589" x="358.093" y="121.725" fill="#000" font-family="Helvetica" font-size="7" font-weight="normal"><tspan style="font-weight:400;stroke-width:.922252" id="tspan22587" x="358.093" y="121.725">Search and stream requests</tspan></text></g></g></svg>